<svg xmlns="http://www.w3.org/2000/svg" width="1200" height="880" viewBox="0 0 1200 880" role="img" aria-labelledby="title desc">
  <title id="title">The Kind Gods of Ilyon — white-label visual asset pack</title>
  <desc id="desc">Reference sheet for Ilyon palette, role silhouettes, campaign motifs, faction marks, and evidence language.</desc>
  <defs>
    <linearGradient id="bg" x1="0" y1="0" x2="1" y2="1">
      <stop offset="0" stop-color="#071827"/>
      <stop offset="0.58" stop-color="#0b2d3b"/>
      <stop offset="1" stop-color="#031019"/>
    </linearGradient>
    <radialGradient id="halo">
      <stop offset="0" stop-color="#48b7b0" stop-opacity=".26"/>
      <stop offset="1" stop-color="#48b7b0" stop-opacity="0"/>
    </radialGradient>
    <pattern id="grid" width="44" height="44" patternUnits="userSpaceOnUse">
      <path d="M44 0H0V44" fill="none" stroke="#e7e1cf" stroke-opacity=".045"/>
    </pattern>
    <style>
      .label{font:700 16px system-ui,sans-serif;letter-spacing:.12em;text-transform:uppercase;fill:#d6bd82}
      .small{font:500 12px ui-monospace,monospace;letter-spacing:.08em;fill:#8eb6b3}
      .name{font:800 20px system-ui,sans-serif;fill:#e7e1cf}
      .body{fill:#123f4b;stroke:#071016;stroke-width:3}
      .skin{fill:#d7ad88;stroke:#071016;stroke-width:3}
      .trim{fill:none;stroke:#d68165;stroke-width:4}
      .gold{fill:none;stroke:#c9a45d;stroke-width:4}
      .tide{fill:none;stroke:#48b7b0;stroke-width:4}
      .nacre{fill:#e7e1cf}
      .panel{fill:#071827;fill-opacity:.82;stroke:#397d82;stroke-width:1.5}
      .motif{fill:none;stroke:#48b7b0;stroke-width:4;stroke-linecap:round;stroke-linejoin:round}
      .motifGold{fill:none;stroke:#c9a45d;stroke-width:4;stroke-linecap:round;stroke-linejoin:round}
      .motifCoral{fill:none;stroke:#d68165;stroke-width:4;stroke-linecap:round;stroke-linejoin:round}
    </style>
  </defs>

  <rect width="1200" height="880" fill="url(#bg)"/>
  <rect width="1200" height="880" fill="url(#grid)"/>
  <circle cx="1050" cy="80" r="240" fill="url(#halo)"/>
  <circle cx="1050" cy="80" r="104" fill="none" stroke="#c9a45d" stroke-opacity=".22"/>
  <ellipse cx="1050" cy="80" rx="104" ry="34" fill="none" stroke="#48b7b0" stroke-opacity=".34" transform="rotate(-18 1050 80)"/>

  <text x="54" y="58" class="label">Godscar / Ilyon / cartridge-owned expression</text>
  <text x="54" y="100" style="font:800 42px system-ui,sans-serif;fill:#e7e1cf">A gift must remain refusible.</text>
  <text x="54" y="132" class="small">oceanic civic observatory · public goods · visible dependency · plural refusal</text>

  <g transform="translate(54 170)">
    <text class="label">Palette</text>
    <g transform="translate(0 24)">
      <rect width="154" height="42" rx="4" fill="#071827" stroke="#397d82"/><text x="12" y="27" class="small" fill="#e7e1cf">ABYSS #071827</text>
      <rect x="166" width="154" height="42" rx="4" fill="#0d6d78"/><text x="178" y="27" class="small" fill="#e7e1cf">OCEAN #0d6d78</text>
      <rect x="332" width="154" height="42" rx="4" fill="#48b7b0"/><text x="344" y="27" class="small" fill="#071827">TIDE #48b7b0</text>
      <rect x="498" width="154" height="42" rx="4" fill="#e7e1cf"/><text x="510" y="27" class="small" fill="#071827">NACRE #e7e1cf</text>
      <rect x="664" width="154" height="42" rx="4" fill="#d68165"/><text x="676" y="27" class="small" fill="#071827">CORAL #d68165</text>
      <rect x="830" width="154" height="42" rx="4" fill="#c9a45d"/><text x="842" y="27" class="small" fill="#071827">ARCHIVE #c9a45d</text>
    </g>
  </g>

  <g transform="translate(54 272)">
    <text class="label">Five incompatible responsibilities</text>

    <g transform="translate(0 28)">
      <rect class="panel" width="202" height="208" rx="8"/>
      <circle cx="101" cy="80" r="58" fill="#123946"/>
      <path class="body" d="M56 172V126Q101 101 146 126V172Z"/>
      <path class="skin" d="M75 78Q75 45 101 40Q127 45 127 78Q124 108 101 112Q78 108 75 78Z"/>
      <path d="M68 72Q74 28 101 30Q133 31 136 77L121 65Q100 53 78 68Z" fill="#18394a" stroke="#071016" stroke-width="3"/>
      <path class="gold" d="M68 130H134"/>
      <circle cx="89" cy="77" r="3" fill="#071016"/><circle cx="113" cy="77" r="3" fill="#071016"/>
      <text x="18" y="191" class="name">Auditor</text>
    </g>

    <g transform="translate(216 28)">
      <rect class="panel" width="202" height="208" rx="8"/>
      <circle cx="101" cy="80" r="58" fill="#174b55"/>
      <path class="body" d="M52 172Q56 118 101 108Q146 118 150 172Z"/>
      <path class="skin" d="M75 78Q75 45 101 40Q127 45 127 78Q124 108 101 112Q78 108 75 78Z"/>
      <path d="M58 68Q75 25 101 34Q128 24 145 70L128 58Q101 47 73 61Z" fill="#2d6c70" stroke="#071016" stroke-width="3"/>
      <path class="trim" d="M58 132Q101 152 144 132"/>
      <circle cx="89" cy="77" r="3" fill="#071016"/><circle cx="113" cy="77" r="3" fill="#071016"/>
      <text x="18" y="191" class="name">Interlocutor</text>
    </g>

    <g transform="translate(432 28)">
      <rect class="panel" width="202" height="208" rx="8"/>
      <circle cx="101" cy="80" r="58" fill="#122f43"/>
      <path class="body" d="M58 172V124Q101 105 144 124V172Z"/>
      <path class="skin" d="M75 78Q75 45 101 40Q127 45 127 78Q124 108 101 112Q78 108 75 78Z"/>
      <path d="M67 64Q80 30 101 35Q122 30 135 64L126 58H76Z" fill="#1d344e" stroke="#071016" stroke-width="3"/>
      <path class="gold" d="M72 137H130"/>
      <circle cx="89" cy="77" r="3" fill="#071016"/><circle cx="113" cy="77" r="3" fill="#071016"/>
      <text x="18" y="191" class="name">Witness</text>
    </g>

    <g transform="translate(648 28)">
      <rect class="panel" width="202" height="208" rx="8"/>
      <circle cx="101" cy="80" r="58" fill="#1d4f4b"/>
      <path class="body" d="M48 172L58 118Q101 100 144 118L154 172Z"/>
      <path class="skin" d="M75 78Q75 45 101 40Q127 45 127 78Q124 108 101 112Q78 108 75 78Z"/>
      <path d="M68 57Q83 31 101 34Q119 31 134 57L126 64H76Z" fill="#2e6d63" stroke="#071016" stroke-width="3"/>
      <path class="trim" d="M55 127H147"/>
      <circle cx="89" cy="77" r="3" fill="#071016"/><circle cx="113" cy="77" r="3" fill="#071016"/>
      <text x="18" y="191" class="name">Protector</text>
    </g>

    <g transform="translate(864 28)">
      <rect class="panel" width="202" height="208" rx="8"/>
      <circle cx="101" cy="80" r="58" fill="#1e5b61"/>
      <path d="M61 172Q64 118 101 104Q138 118 141 172Z" fill="#78b9b2" stroke="#071016" stroke-width="3"/>
      <path d="M75 78Q75 45 101 40Q127 45 127 78Q124 108 101 112Q78 108 75 78Z" fill="#d8efe8" stroke="#071016" stroke-width="3"/>
      <path class="tide" d="M72 48L58 26M130 48L144 26M68 57L48 48M134 57L154 48"/>
      <path class="trim" d="M64 132Q101 150 138 132"/>
      <circle cx="89" cy="77" r="3" fill="#0d6d78"/><circle cx="113" cy="77" r="3" fill="#0d6d78"/>
      <text x="18" y="191" class="name">Sovereign Exception</text>
    </g>
  </g>

  <g transform="translate(54 548)">
    <text class="label">Six campaign beats</text>
    <g transform="translate(0 28)">
      <g transform="translate(0)"><rect class="panel" width="164" height="128" rx="8"/><path class="motifGold" d="M66 24H98V48H122V80H98V104H66V80H42V48H66Z"/><path class="tide" d="M42 102Q61 86 80 102T122 102"/><text x="18" y="118" class="small">END THE FEVER</text></g>
      <g transform="translate(176)"><rect class="panel" width="164" height="128" rx="8"/><circle cx="82" cy="64" r="10" fill="#48b7b0"/><circle cx="42" cy="34" r="8" fill="#48b7b0"/><circle cx="122" cy="34" r="8" fill="#48b7b0"/><circle cx="42" cy="94" r="8" fill="#48b7b0"/><circle cx="122" cy="94" r="8" fill="#48b7b0"/><path class="motif" d="M49 40L74 57M115 40L90 57M49 88L74 71M115 88L90 71"/><text x="18" y="118" class="small">MAP DEPENDENCY</text></g>
      <g transform="translate(352)"><rect class="panel" width="164" height="128" rx="8"/><path class="motifCoral" d="M82 20L91 52L126 54L98 75L107 108L82 88L57 108L66 75L38 54L73 52Z"/><path class="motifCoral" d="M55 38L109 94M109 38L55 94"/><text x="18" y="118" class="small">READ DEAD STAR</text></g>
      <g transform="translate(528)"><rect class="panel" width="164" height="128" rx="8"/><path class="motif" d="M30 42Q48 20 66 42T102 42T138 42M30 66Q48 44 66 66T102 66T138 66M30 90Q48 68 66 90T102 90T138 90"/><text x="18" y="118" class="small">HEAR THE OCEAN</text></g>
      <g transform="translate(704)"><rect class="panel" width="164" height="128" rx="8"/><path class="motif" d="M82 104V68L50 40V20M82 68L114 40V20"/><rect x="37" y="12" width="26" height="22" fill="none" stroke="#48b7b0" stroke-width="4"/><rect x="101" y="12" width="26" height="22" fill="none" stroke="#48b7b0" stroke-width="4"/><text x="18" y="118" class="small">REFUSE INTEGRATION</text></g>
      <g transform="translate(880)"><rect class="panel" width="164" height="128" rx="8"/><path class="motifCoral" d="M30 98Q50 60 66 70Q82 80 98 46Q112 18 136 24"/><path class="motifCoral" d="M112 16H140V44"/><circle cx="32" cy="96" r="8" fill="#d68165"/><text x="18" y="118" class="small">CARRY EVIDENCE</text></g>
    </g>
  </g>

  <g transform="translate(54 742)">
    <text class="label">Institutional marks</text>
    <g transform="translate(0 24)">
      <circle cx="36" cy="36" r="26" class="motifGold"/><path class="motifGold" d="M36 10V62M10 36H62"/><circle cx="36" cy="36" r="10" fill="#c9a45d"/>
      <text x="78" y="32" class="name">Final Humanity</text><text x="78" y="52" class="small">integrated public good / integrated authority</text>
    </g>
    <g transform="translate(390 24)">
      <path class="motif" d="M10 56L18 22L32 40L40 16L48 40L62 22L70 56M8 10L72 66"/>
      <text x="92" y="32" class="name">Uncrowned Compact</text><text x="92" y="52" class="small">opacity / redundancy / costly refusal</text>
    </g>
    <g transform="translate(804 24)">
      <path class="motifGold" d="M12 62V32L40 12L68 32V62ZM24 62V42H56V62M12 32H68"/><path class="tide" d="M8 14Q20 4 32 14T56 14T76 10"/>
      <text x="92" y="32" class="name">Thalassic Houses</text><text x="92" y="52" class="small">continuity / rescue / hierarchy</text>
    </g>
  </g>
</svg>
