<svg xmlns="http://www.w3.org/2000/svg" viewBox="0 0 640 800" role="img" aria-labelledby="title desc">
<title id="title">Anja Vei, Lamp District teacher and interlocutor</title>
<desc id="desc">A formal vector portrait of a Lamp District teacher carrying witness tablets beneath amber communal lamps.</desc>
<defs><linearGradient id="bg" x1="0" y1="0" x2="0" y2="1"><stop stop-color="#221922"/><stop offset="1" stop-color="#0c0a0d"/></linearGradient><radialGradient id="glow"><stop stop-color="#f6d28a" stop-opacity=".65"/><stop offset="1" stop-color="#d8a24c" stop-opacity="0"/></radialGradient></defs>
<rect width="640" height="800" fill="url(#bg)"/><circle cx="470" cy="150" r="180" fill="url(#glow)"/>
<path d="M110 790C120 590 185 505 320 500C455 505 520 590 530 790Z" fill="#704d5e" stroke="#120f12" stroke-width="12"/>
<path d="M210 520L245 450H395L430 520L385 615H255Z" fill="#d7a25d" opacity=".72"/>
<ellipse cx="320" cy="315" rx="135" ry="175" fill="#d9ad8b" stroke="#120f12" stroke-width="12"/>
<path d="M188 310C175 132 245 80 335 85C455 92 500 180 450 360C430 250 365 195 270 205C240 210 210 245 188 310Z" fill="#62464f" stroke="#120f12" stroke-width="12"/>
<path d="M206 235C215 135 285 85 385 102" fill="none" stroke="#a97a74" stroke-width="18"/>
<ellipse cx="270" cy="322" rx="16" ry="11" fill="#2a211e"/><ellipse cx="372" cy="322" rx="16" ry="11" fill="#2a211e"/>
<path d="M296 405Q320 420 348 402" fill="none" stroke="#95564d" stroke-width="10" stroke-linecap="round"/>
<path d="M320 330L300 375H332" fill="none" stroke="#b87f66" stroke-width="8"/>
<path d="M160 690L250 610H390L480 690" fill="none" stroke="#e5c979" stroke-width="14"/>
<rect x="80" y="560" width="150" height="190" rx="12" fill="#2a242a" stroke="#d8a24c" stroke-width="8" transform="rotate(-8 155 655)"/>
<path d="M112 610H197M108 650H190M104 690H180" stroke="#d8a24c" stroke-width="7"/>
<text x="320" y="770" text-anchor="middle" fill="#eadfc7" font-family="monospace" font-size="23" letter-spacing="4">ANJA VEI · INTERLOCUTOR</text>
</svg>