<svg xmlns="http://www.w3.org/2000/svg" viewBox="0 0 1600 900" role="img" aria-labelledby="title desc">
<title id="title">Lamp District civic underworld</title>
<desc id="desc">A layered buried district of communal lamps, cistern bridges, salt-vault radiators, homes, a school, clinic, market and sealed war machinery beneath a ruined survey outpost.</desc>
<defs>
  <linearGradient id="bg" x1="0" y1="0" x2="0" y2="1"><stop stop-color="#09080b"/><stop offset="1" stop-color="#1c171b"/></linearGradient>
  <linearGradient id="stone" x1="0" y1="0" x2="1" y2="0"><stop stop-color="#211d22"/><stop offset=".5" stop-color="#30282b"/><stop offset="1" stop-color="#171418"/></linearGradient>
  <radialGradient id="lamp"><stop stop-color="#ffe2a1" stop-opacity=".9"/><stop offset=".3" stop-color="#d8a24c" stop-opacity=".45"/><stop offset="1" stop-color="#d8a24c" stop-opacity="0"/></radialGradient>
  <pattern id="brick" width="64" height="32" patternUnits="userSpaceOnUse"><path d="M0 0H64V32H0ZM0 16H64M32 0V16M16 16V32M48 16V32" fill="none" stroke="#46383d" stroke-width="2" opacity=".45"/></pattern>
</defs>
<rect width="1600" height="900" fill="url(#bg)"/>
<path d="M0 100 C220 30 400 145 600 82 C830 12 1030 150 1260 70 C1400 22 1510 54 1600 105 V900 H0Z" fill="url(#stone)"/>
<path d="M0 100 C220 30 400 145 600 82 C830 12 1030 150 1260 70 C1400 22 1510 54 1600 105" fill="none" stroke="#57494e" stroke-width="12"/>
<rect y="120" width="1600" height="780" fill="url(#brick)" opacity=".38"/>
<g stroke="#665057" stroke-width="10" fill="none">
  <path d="M80 770H1520"/><path d="M150 610H1450"/><path d="M260 450H1340"/><path d="M380 285H1220"/>
  <path d="M140 610L260 450L380 285"/><path d="M1460 610L1340 450L1220 285"/>
</g>
<g fill="#161216" stroke="#5e4b51" stroke-width="5">
  <rect x="170" y="650" width="310" height="120" rx="8"/><rect x="510" y="650" width="250" height="120" rx="8"/>
  <rect x="790" y="650" width="270" height="120" rx="8"/><rect x="1090" y="650" width="330" height="120" rx="8"/>
  <rect x="310" y="490" width="290" height="120" rx="8"/><rect x="635" y="490" width="330" height="120" rx="8"/>
  <rect x="1000" y="490" width="290" height="120" rx="8"/><rect x="470" y="325" width="280" height="120" rx="8"/>
  <rect x="790" y="325" width="340" height="120" rx="8"/>
</g>
<g fill="#d8a24c">
  <rect x="215" y="686" width="18" height="42"/><rect x="260" y="686" width="18" height="42"/><rect x="305" y="686" width="18" height="42"/>
  <rect x="555" y="686" width="18" height="42"/><rect x="600" y="686" width="18" height="42"/>
  <rect x="840" y="686" width="18" height="42"/><rect x="885" y="686" width="18" height="42"/><rect x="930" y="686" width="18" height="42"/>
  <rect x="1145" y="686" width="18" height="42"/><rect x="1190" y="686" width="18" height="42"/><rect x="1235" y="686" width="18" height="42"/>
  <rect x="360" y="525" width="18" height="42"/><rect x="405" y="525" width="18" height="42"/>
  <rect x="690" y="525" width="18" height="42"/><rect x="735" y="525" width="18" height="42"/><rect x="780" y="525" width="18" height="42"/>
  <rect x="1050" y="525" width="18" height="42"/><rect x="1095" y="525" width="18" height="42"/>
  <rect x="520" y="360" width="18" height="42"/><rect x="565" y="360" width="18" height="42"/>
  <rect x="850" y="360" width="18" height="42"/><rect x="895" y="360" width="18" height="42"/><rect x="940" y="360" width="18" height="42"/>
</g>
<g opacity=".75">
  <circle cx="275" cy="705" r="110" fill="url(#lamp)"/><circle cx="640" cy="705" r="110" fill="url(#lamp)"/>
  <circle cx="900" cy="705" r="110" fill="url(#lamp)"/><circle cx="1230" cy="705" r="110" fill="url(#lamp)"/>
  <circle cx="420" cy="545" r="95" fill="url(#lamp)"/><circle cx="800" cy="545" r="105" fill="url(#lamp)"/>
  <circle cx="1100" cy="545" r="95" fill="url(#lamp)"/><circle cx="610" cy="380" r="90" fill="url(#lamp)"/>
  <circle cx="930" cy="380" r="100" fill="url(#lamp)"/>
</g>
<g fill="none" stroke="#8c5b45" stroke-width="8" opacity=".8">
  <path d="M85 835C250 810 280 860 430 830S720 820 850 840S1130 810 1510 838"/>
  <path d="M120 180H1480M180 210H1420"/>
</g>
<g fill="#0b0b0d" stroke="#6c5f62" stroke-width="4">
  <circle cx="800" cy="205" r="68"/><path d="M735 205H865M800 140V270M753 158L847 252M847 158L753 252"/>
</g>
<text x="82" y="850" fill="#b69b74" font-family="monospace" font-size="22" letter-spacing="5">THE LAMP DISTRICT · MAINTAINED MISCLASSIFICATION</text>
</svg>